<?xml version="1.0" encoding="iso-8859-1"?>
<!-- Generator: Adobe Illustrator 19.0.0, SVG Export Plug-In . SVG Version: 6.00 Build 0)  -->
<svg version="1.1" id="Layer_1" xmlns="http://www.w3.org/2000/svg" xmlns:xlink="http://www.w3.org/1999/xlink" x="0px" y="0px"
	 viewBox="0 0 512 512" style="enable-background:new 0 0 512 512;" xml:space="preserve">
<g>
	<g>
		<path d="M274.573,0C169.075,0,83.246,85.828,83.246,191.326v20.001l-35.67,89.173c-2.543,6.356-1.769,13.535,2.068,19.204
			c3.837,5.669,10.217,9.053,17.063,9.053h23.323c2.202,0,3.995,1.791,3.995,3.995v55.543c0,14.72,11.974,26.694,26.694,26.694
			h46.013c1.513,0,2.745,1.232,2.745,2.745v75.351c0,10.429,8.485,18.914,18.914,18.914h258.593
			c10.429,0,18.914-8.485,18.914-18.914v-301.76C465.899,85.828,380.071,0,274.573,0z M449.731,493.086L449.731,493.086
			c0,1.513-1.232,2.745-2.745,2.745H188.392c-1.513,0-2.745-1.232-2.745-2.745v-75.351c0-10.429-8.485-18.914-18.914-18.914h-46.013
			c-5.803,0-10.526-4.722-10.526-10.526v-55.543c0-11.117-9.045-20.163-20.163-20.163H66.708c-2.125,0-3.277-1.364-3.673-1.95
			c-0.397-0.585-1.234-2.161-0.446-4.134l36.247-90.62c0.382-0.955,0.579-1.975,0.579-3.003v-21.558
			c0-96.583,78.575-175.158,175.158-175.158s175.158,78.575,175.158,175.158V493.086z"/>
	</g>
</g>
<g>
	<g>
		<path d="M285.352,43.116h-21.558c-75.901,0-137.432,61.531-137.432,137.432v42.035c0,11.015,8.929,19.944,19.944,19.944h12.393
			v28.077c-13.308,3.779-22.836,16.633-21.418,31.424c1.372,14.306,13.123,25.697,27.463,26.662
			c17.264,1.162,31.682-12.553,31.682-29.573c0-13.542-9.132-24.983-21.558-28.513v-28.077h91.621v114.309
			c-13.308,3.779-22.836,16.633-21.418,31.423c1.372,14.306,13.122,25.698,27.462,26.663c17.264,1.162,31.682-12.553,31.682-29.573
			c0-13.542-9.132-24.983-21.558-28.512V242.526h14.629c4.465,0,8.084-3.62,8.084-8.084c0-4.465-3.62-8.084-8.084-8.084h-150.98
			c-2.086,0-3.776-1.69-3.776-3.776v-23.172h45.18c16.13,0,29.781-12.622,30.26-28.745c0.497-16.752-12.987-30.539-29.629-30.539
			h-10.44c-4.427,0-8.287,3.41-8.419,7.835c-0.138,4.578,3.533,8.333,8.081,8.333h10.384c7.012,0,13.15,5.193,13.807,12.175
			c0.755,8.011-5.554,14.773-13.412,14.773h-45.81v-2.695c0-66.972,54.291-121.263,121.263-121.263h13.474v66.93
			c0,7.331-5.668,13.648-12.993,13.905c-7.568,0.264-13.823-5.75-13.952-13.229c-0.072-4.185-3.096-7.866-7.261-8.279
			c-4.835-0.48-8.91,3.306-8.91,8.043c0,16.643,13.787,30.126,30.539,29.629c16.122-0.479,28.745-14.13,28.745-30.26v-16.096
			c4.045,2.074,8.623,3.253,13.474,3.253c16.155,0,29.334-12.992,29.637-29.076c0.081-4.299-2.963-8.177-7.24-8.608
			c-4.841-0.487-8.923,3.3-8.923,8.042c0,7.858-6.762,14.167-14.773,13.412c-6.982-0.658-12.175-6.795-12.175-13.807V59.56
			c49.171,3.253,90.419,35.942,106.243,80.566h-38.244c-16.13,0-29.781,12.622-30.26,28.745
			c-0.497,16.752,12.986,30.539,29.629,30.539h10.44c4.427,0,8.287-3.41,8.419-7.835c0.138-4.578-3.533-8.333-8.081-8.333h-10.384
			c-7.012,0-13.15-5.193-13.807-12.175c-0.755-8.011,5.554-14.773,13.412-14.773h43.116c0.086,0,0.169-0.011,0.254-0.013
			c1.6,7.843,2.44,15.957,2.44,24.266v42.035c0,2.086-1.69,3.776-3.776,3.776h-66.174c-4.465,0-8.084,3.62-8.084,8.084
			c0,4.465,3.62,8.084,8.084,8.084h37.613v28.077c-13.308,3.779-22.836,16.633-21.418,31.424
			c1.372,14.306,13.123,25.697,27.463,26.662c17.264,1.162,31.681-12.553,31.681-29.573c0-13.542-9.132-24.983-21.558-28.513
			v-28.077h12.393c11.015,0,19.944-8.929,19.944-19.944v-42.035C422.783,104.646,361.253,43.116,285.352,43.116z M288.046,385.347
			c0,7.43-6.044,13.474-13.474,13.474s-13.474-6.044-13.474-13.474s6.044-13.474,13.474-13.474
			C282.001,371.874,288.046,377.917,288.046,385.347z M180.257,299.116c0,7.43-6.044,13.474-13.474,13.474
			s-13.474-6.044-13.474-13.474s6.044-13.474,13.474-13.474S180.257,291.686,180.257,299.116z M395.836,299.116
			c0,7.43-6.044,13.474-13.474,13.474s-13.474-6.044-13.474-13.474s6.044-13.474,13.474-13.474S395.836,291.686,395.836,299.116z"/>
	</g>
</g>
<g>
</g>
<g>
</g>
<g>
</g>
<g>
</g>
<g>
</g>
<g>
</g>
<g>
</g>
<g>
</g>
<g>
</g>
<g>
</g>
<g>
</g>
<g>
</g>
<g>
</g>
<g>
</g>
<g>
</g>
</svg>
