<svg id="SvgjsSvg1034" width="360" height="275" xmlns="http://www.w3.org/2000/svg" version="1.1" xmlns:xlink="http://www.w3.org/1999/xlink" xmlns:svgjs="http://svgjs.com/svgjs"><defs id="SvgjsDefs1035"><svg width="50px" height="50px" xmlns="http://www.w3.org/2000/svg" xmlns:xlink="http://www.w3.org/1999/xlink" version="1.1" x="0px" y="0px" viewBox="0 0 48 48" enable-background="new 0 0 48 48" id="a1484885767141"><g><g><g><path old_fill="#000000" d="M14.3,20.5c1.7-4.1,4.6-6.6,9.3-5.8c1.7,0.3,2,1.3,3.4,1.7c2.5,0.8,4.3,0.6,6.8-0.3     c3.3-1.3,5.7-3.4,9.2,1.6c0.9,1.4,1.1,3.7,1.4,5.3c0.8,4.3,1.2,8.5,0.5,12.8c-0.7,4.6-3,9.5-8.2,9.8c-3.3,0.2-5.3-2.3-8.2-3.1     c-1.5-0.4-3.3,1-4.5,1.5c-6.2,2.4-9.2-6.7-10.2-10.8c-0.2-0.8-1.4-0.5-1.2,0.3c1,4.3,2.5,8.2,6.2,10.8c4.3,2.9,8.4-1.9,12.6,1     c8.3,5.7,13.8-3.5,14.8-10.7c0.7-4.9-0.4-10.2-1.3-15c-0.7-3.5-3.2-5.8-6.7-6.3c-4.7-0.6-6.2,4.5-11.8,1.3     c-1.8-1.1-3.4-1.5-5.6-1.4c-3.9,0.1-6.5,3.7-7.8,6.9C12.8,20.9,14,21.2,14.3,20.5L14.3,20.5z"></path></g></g><g><g><path old_fill="#000000" d="M19.7,13.7c-1.8-1.3-9.3-6.1-11.3-2.6c-0.7,1.2-0.2,4.3,0.6,5.5c1.7,2.6,3.9,3.9,6.6,5.3     c4.3,2.3,8.3,5,12.3,7.7c2.6,1.7-1.4,6.1-2.3,7.5c-2.1,3.1-3.9,1.7-6.3,0c-3.9-2.7-7.6-5.7-11.3-8.7c-3.3-2.6-6.3-6-4.2-11     c1.1-2.7,4.1-4.4,6.5-5.7c0.7-0.4,0.1-1.5-0.6-1.1c-5.6,2.9-11.1,9.5-5.8,15.6c2.7,3,6.1,5.4,9.3,7.9c2.3,1.8,4.6,3.5,6.9,5.1     c1,0.7,2.4,2.1,3.7,2.1c1.8,0,4.1-5.3,4.9-6.6c0.8-1.2,3.3-3.8,1.4-5.1c-4.9-3.3-9.8-6.6-15-9.3c-1.2-0.6-2.3-1.3-3.3-2.2     c0.6,0.5-4.6-6.2-1-6.5c3.1-0.2,5.9,1.6,8.4,3.3C19.7,15.3,20.3,14.2,19.7,13.7L19.7,13.7z"></path></g></g><g><g><path old_fill="#000000" d="M9.2,17.1c-0.4,1.2-1.4,2-1.8,3.2c-0.2,0.8,1,1.1,1.2,0.3c0.3-1.2,1.4-2,1.8-3.2     C10.7,16.6,9.4,16.3,9.2,17.1L9.2,17.1z"></path></g></g><g><g><path old_fill="#000000" d="M12.8,19.9c-0.6,0.9-1,1.8-1.3,2.8c-0.2,0.8,1,1.1,1.2,0.3c0.3-0.9,0.6-1.7,1.2-2.5     C14.3,19.8,13.2,19.2,12.8,19.9L12.8,19.9z"></path></g></g><g><g><path old_fill="#000000" d="M16.3,22.2c-0.3,1.6-0.9,3.1-1.9,4.5c-0.5,0.7,0.6,1.3,1.1,0.6c1-1.4,1.7-3,2-4.8     C17.6,21.8,16.4,21.4,16.3,22.2L16.3,22.2z"></path></g></g><g><g><path old_fill="#000000" d="M20.5,24.5c-0.4,1.5-1.2,3.1-1.8,4.6c-0.3,0.7,0.9,1.1,1.2,0.3c0.6-1.5,1.4-3,1.8-4.6     C21.9,24,20.7,23.7,20.5,24.5L20.5,24.5z"></path></g></g><g><g><path old_fill="#000000" d="M24.6,27.4c-0.6,1-1.2,2.1-1.8,3.1c-0.4,0.7,0.7,1.4,1.1,0.6c0.5-1.1,1.1-2.1,1.8-3.1     C26.1,27.4,25,26.7,24.6,27.4L24.6,27.4z"></path></g></g><g><g><path old_fill="#000000" d="M24,3.1c3.3,3.3,5.1,7.6,5.1,12.3c0,0.8,1.3,0.8,1.3,0c-0.1-5-2-9.6-5.5-13.2C24.3,1.6,23.4,2.5,24,3.1     L24,3.1z"></path></g></g><g><g><path old_fill="#000000" d="M29.2,9.3c0.5-2.8,3.1-6.6,6.3-6.8c2.1-0.2,4.3,0,6.5,0.1c0.4,0,0.8,0,1.1,0c1.3,2.5,0.6,4.1-2.1,4.6     c-1.3,0.5-2.8,0.7-4.2,0.9c-2.5,0.3-5.1,0.1-7.6-0.5c-0.8-0.2-1.1,1-0.3,1.2c4.5,1,9.1,0.9,13.4-0.8C44.6,7,46.9,4,45.2,1.7     c-0.6-0.8-2.5-0.4-3.2-0.4c-2.4,0-4.9-0.2-7.3,0C31.4,1.5,28.6,6,28,8.9C27.9,9.7,29.1,10,29.2,9.3L29.2,9.3z"></path></g></g></g></svg><!--?xml version="1.0"?-->
<svg width="428.38275862069px" height="245.51724137931px" id="t1484885767141"><path fill="#ffffff" d="M25.626206896552,22.44c0,3.4137931034483-1.7751724137931,5.28-4.2786206896551,6.5089655172413c2.7310344827586,0.68275862068965,5.8262068965517,3.0951724137931,5.8262068965517,7.6013793103448c0,4.9613793103448-3.3227586206896,8.9668965517241-10.878620689655,8.9668965517241l-15.20275862069,0l0-1.3655172413793l1.1834482758621,0c1.7296551724138,0,2.4579310344827-1.1379310344828,2.4579310344827-2.1393103448276l0-23.896551724138c0-1.3655172413793-0.95586206896551-2.0482758620689-2.0027586206896-2.0482758620689l-1.6386206896552,0l0-1.3655172413793l4.3696551724138,0c1.5020689655172,0,3.0496551724138-0.18206896551724,4.4151724137931-0.31862068965517c1.4565517241379-0.18206896551724,3.0496551724138-0.31862068965517,4.9158620689655-0.31862068965517c8.4662068965517,0,10.833103448276,4.3696551724138,10.833103448276,8.375172413793z M15.657931034483,43.377931034482c5.9172413793103,0,7.9655172413793-3.9144827586207,7.9655172413793-6.5089655172413c0-2.3213793103448-1.0924137931034-6.0537931034482-5.8262068965517-6.0537931034482c-0.86482758620689,0-2.3668965517241,0.27310344827586-3.3227586206896,0.27310344827586c-1.3655172413793,0-2.1393103448276-0.54620689655172-2.1393103448276-1.7296551724138c0-0.63724137931034,0.68275862068965-1.2289655172414,0.68275862068965-1.2289655172414s1.911724137931,0.22758620689655,2.9586206896552,0.22758620689655c3.6413793103448,0,6.0993103448275-2.4579310344827,6.0993103448275-5.6441379310344c0-2.8675862068965-1.2744827586207-6.5089655172413-8.1475862068965-6.5089655172413c-1.7296551724138,0-4.4606896551724,0.36413793103448-5.9172413793103,1.1834482758621l0,24.852413793103c0.13655172413793,0.13655172413793,1.2289655172414,1.1379310344828,7.6468965517241,1.1379310344828z M49.424896551723,35.548965517241c-7.1006896551724,0-8.1020689655172,0-9.5586206896551,0.9103448275862c-0.36413793103448-0.36413793103448-0.54620689655172-1.2744827586207-0.54620689655172-1.5475862068965c0-1.4110344827586,2.0937931034483-1.4110344827586,4.0055172413793-1.4110344827586l5.5531034482758,0c0.95586206896551,0,1.4110344827586-0.27310344827586,1.4110344827586-1.2289655172414c0-3.823448275862-2.0027586206896-7.3737931034482-6.463448275862-7.3737931034482c-5.3255172413793,0-7.783448275862,5.0068965517241-7.783448275862,10.013793103448c0,4.551724137931,2.9131034482758,9.1489655172413,7.4648275862068,9.1489655172413c4.4606896551724,0,6.1903448275862-2.4579310344827,7.1462068965517-4.0055172413793c0.72827586206896,0.27310344827586,1.4110344827586,1.1834482758621,1.4110344827586,1.7296551724138c0,2.0027586206896-2.5944827586207,4.2786206896551-8.5572413793103,4.2786206896551c-7.5103448275861,0-10.605517241379-6.0537931034482-10.605517241379-11.151724137931c0-6.7365517241379,3.7324137931034-12.016551724138,11.060689655172-12.016551724138c5.4165517241379,0,9.3310344827586,3.823448275862,9.3310344827586,9.3310344827586c0,3.3227586206896-1.1379310344828,3.3227586206896-3.8689655172413,3.3227586206896z M70.811172413792,40.92c0,0,1.5931034482758,0.09103448275862,1.5931034482758,1.7751724137931c0,1.6386206896552-1.9572413793103,3.3227586206896-5.0068965517241,3.3227586206896c-2.9131034482758,0-5.5531034482758-1.8662068965517-5.5531034482758-7.1006896551724l0-13.2l-3.2772413793103,0l0-1.6841379310345c2.5034482758621,0,4.3696551724138-0.63724137931034,4.4606896551724-4.1875862068965l1.8206896551724,0l0,4.1875862068965c5.3255172413793,0,6.0537931034482-1.0468965517241,6.0537931034482-1.5475862068965c0.77379310344827,0.13655172413793,1.3655172413793,0.54620689655172,1.3655172413793,1.3655172413793c0,1.0924137931034-1.0468965517241,1.8662068965517-3.0041379310345,1.8662068965517l-4.4151724137931,0l0,13.2c0,2.5489655172414,0.50068965517241,5.0524137931034,2.8675862068965,5.0524137931034c2.5034482758621,0,3.0951724137931-3.0496551724138,3.0951724137931-3.0496551724138z M88.419517241378,40.92c0,0,1.5931034482758,0.09103448275862,1.5931034482758,1.7751724137931c0,1.6386206896552-1.9572413793103,3.3227586206896-5.0068965517241,3.3227586206896c-2.9131034482758,0-5.5531034482758-1.8662068965517-5.5531034482758-7.1006896551724l0-13.2l-3.2772413793103,0l0-1.6841379310345c2.5034482758621,0,4.3696551724138-0.63724137931034,4.4606896551724-4.1875862068965l1.8206896551724,0l0,4.1875862068965c5.3255172413793,0,6.0537931034482-1.0468965517241,6.0537931034482-1.5475862068965c0.77379310344827,0.13655172413793,1.3655172413793,0.54620689655172,1.3655172413793,1.3655172413793c0,1.0924137931034-1.0468965517241,1.8662068965517-3.0041379310345,1.8662068965517l-4.4151724137931,0l0,13.2c0,2.5489655172414,0.50068965517241,5.0524137931034,2.8675862068965,5.0524137931034c2.5034482758621,0,3.0951724137931-3.0496551724138,3.0951724137931-3.0496551724138z M111.76303448276,35.548965517241c-7.1006896551724,0-8.1020689655172,0-9.5586206896551,0.9103448275862c-0.36413793103448-0.36413793103448-0.54620689655172-1.2744827586207-0.54620689655172-1.5475862068965c0-1.4110344827586,2.0937931034483-1.4110344827586,4.0055172413793-1.4110344827586l5.5531034482758,0c0.95586206896551,0,1.4110344827586-0.27310344827586,1.4110344827586-1.2289655172414c0-3.823448275862-2.0027586206896-7.3737931034482-6.463448275862-7.3737931034482c-5.3255172413793,0-7.783448275862,5.0068965517241-7.783448275862,10.013793103448c0,4.551724137931,2.9131034482758,9.1489655172413,7.4648275862068,9.1489655172413c4.4606896551724,0,6.1903448275862-2.4579310344827,7.1462068965517-4.0055172413793c0.72827586206896,0.27310344827586,1.4110344827586,1.1834482758621,1.4110344827586,1.7296551724138c0,2.0027586206896-2.5944827586207,4.2786206896551-8.5572413793103,4.2786206896551c-7.5103448275861,0-10.605517241379-6.0537931034482-10.605517241379-11.151724137931c0-6.7365517241379,3.7324137931034-12.016551724138,11.060689655172-12.016551724138c5.4165517241379,0,9.3310344827586,3.823448275862,9.3310344827586,9.3310344827586c0,3.3227586206896-1.1379310344828,3.3227586206896-3.8689655172413,3.3227586206896z M132.69413793103,23.350344827586c3.7324137931034,0,5.143448275862,1.911724137931,5.143448275862,4.2786206896551c0,1.1379310344828-0.63724137931034,2.5034482758621-1.9572413793103,2.5034482758621c-0.95586206896551,0-1.2289655172414-0.59172413793103-1.2289655172414-0.59172413793103c0.18206896551724-0.13655172413793,0.54620689655172-1.0924137931034,0.54620689655172-1.6841379310345c0-1.3655172413793-0.77379310344827-2.64-2.6855172413793-2.64c-3.3227586206896,0-5.4165517241379,4.2331034482758-5.4165517241379,8.9213793103448l0,7.4648275862068c0,1.2744827586207,0.36413793103448,2.7310344827586,2.0027586206896,2.7310344827586l0.68275862068965,0l0,1.1834482758621l-8.9668965517241,0l0-1.1834482758621l1.2289655172414,0c1.6841379310345,0,2.0482758620689-1.5475862068965,2.0482758620689-2.4579310344827l0-13.88275862069c0-2.1393103448276-1.0468965517241-2.7765517241379-2.2303448275862-2.7765517241379l-1.0468965517241,0l0-1.1834482758621l3.231724137931,0c1.9572413793103,0,2.9131034482758,1.0924137931034,3.0496551724138,3.0496551724138c0.9103448275862-2.0482758620689,3.2772413793103-3.7324137931034,5.5986206896551-3.7324137931034z M151.34937931034,31.588965517241c-8.1931034482758-3.4593103448276-9.103448275862-6.5999999999999-9.103448275862-9.7862068965517c0-3.5048275862069,3.3682758620689-7.7379310344827,9.6041379310344-7.7379310344827c6.3268965517241,0,9.3310344827586,3.0041379310345,9.3310344827586,6.0993103448275c0,2.8220689655172-1.7751724137931,3.5503448275862-3.0041379310345,3.5503448275862c0-5.6441379310344-2.5489655172414-7.5558620689655-6.3268965517241-7.5558620689655c-3.5048275862069,0-6.2813793103448,2.4124137931034-6.2813793103448,5.4620689655172c0,7.8744827586206,16.659310344827,6.6455172413793,16.659310344827,16.52275862069c0,4.1875862068965-4.0510344827586,8.1020689655172-10.969655172414,8.1020689655172c-7.0551724137931,0-10.150344827586-3.7324137931034-10.150344827586-6.2813793103448c0-2.8675862068965,2.4579310344827-3.2772413793103,2.4579310344827-3.2772413793103s0.63724137931034,7.2372413793103,8.1931034482758,7.2372413793103c6.0993103448275,0,7.1462068965517-3.96,7.1462068965517-5.4165517241379c0-1.5475862068965-0.18206896551724-3.823448275862-7.5558620689655-6.9186206896551z M184.66117241379,35.548965517241c-7.1006896551724,0-8.1020689655172,0-9.5586206896551,0.9103448275862c-0.36413793103448-0.36413793103448-0.54620689655172-1.2744827586207-0.54620689655172-1.5475862068965c0-1.4110344827586,2.0937931034483-1.4110344827586,4.0055172413793-1.4110344827586l5.5531034482758,0c0.95586206896551,0,1.4110344827586-0.27310344827586,1.4110344827586-1.2289655172414c0-3.823448275862-2.0027586206896-7.3737931034482-6.463448275862-7.3737931034482c-5.3255172413793,0-7.783448275862,5.0068965517241-7.783448275862,10.013793103448c0,4.551724137931,2.9131034482758,9.1489655172413,7.4648275862068,9.1489655172413c4.4606896551724,0,6.1903448275862-2.4579310344827,7.1462068965517-4.0055172413793c0.72827586206896,0.27310344827586,1.4110344827586,1.1834482758621,1.4110344827586,1.7296551724138c0,2.0027586206896-2.5944827586207,4.2786206896551-8.5572413793103,4.2786206896551c-7.5103448275861,0-10.605517241379-6.0537931034482-10.605517241379-11.151724137931c0-6.7365517241379,3.7324137931034-12.016551724138,11.060689655172-12.016551724138c5.4165517241379,0,9.3310344827586,3.823448275862,9.3310344827586,9.3310344827586c0,3.3227586206896-1.1379310344828,3.3227586206896-3.8689655172413,3.3227586206896z M202.49710344827,43.924137931034c1.911724137931-0.04551724137931,2.8220689655172-1.5475862068965,3.0041379310345-2.7765517241379c0,0,1.6386206896552,0.22758620689655,1.6386206896552,1.5475862068965c0,1.9572413793103-1.8662068965517,3.2772413793103-4.7793103448276,3.2772413793103c-2.8675862068965,0-5.7806896551724-1.3655172413793-5.7806896551724-7.191724137931l0-21.529655172414c0-2.0027586206896-1.1834482758621-2.5489655172414-2.3668965517241-2.5489655172414l-1.1834482758621,0l0-1.0924137931034l3.5958620689655,0c2.0027586206896,0,2.9586206896552,1.3655172413793,2.9586206896552,3.0041379310345l0,22.485517241379c0,2.7765517241379,0.86482758620689,4.8248275862069,2.9131034482758,4.8248275862069z M220.78820689655,12.699310344827c2.9131034482758,0,5.7351724137931,0.86482758620689,5.7351724137931,3.5048275862069c0,2.3213793103448-1.5020689655172,2.3213793103448-2.1393103448276,2.3213793103448c0-1.2744827586207-0.22758620689655-3.9144827586207-3.5958620689655-3.9144827586207c-3.0041379310345,0-4.2786206896551,2.5034482758621-4.2786206896551,6.6455172413793l0,2.7765517241379l5.6896551724138,0c1.1834482758621,0,2.0482758620689,0.36413793103448,2.0482758620689,1.4565517241379c0,1.4565517241379-1.5931034482758,2.2303448275862-1.5931034482758,2.2303448275862c0-1.32-1.6841379310345-1.8662068965517-4.5062068965517-1.8662068965517l-1.6386206896552,0l0,15.84c0,1.32,0.59172413793103,2.64,2.64,2.64l0.95586206896551,0l0,1.1834482758621l-10.150344827586,0l0-1.1834482758621l1.0924137931034,0c2.0027586206896,0,2.4579310344827-1.4565517241379,2.4579310344827-2.64l0-15.84l-3.5503448275862,0l0-1.8206896551724l0.86482758620689,0c2.6855172413793,0,2.6855172413793-2.3213793103448,2.6855172413793-2.3213793103448c0-7.7379310344827,4.3696551724138-9.0124137931034,7.2827586206896-9.0124137931034z"></path></svg>
</defs><g id="SvgjsG1038" transform="matrix(1,0,0,1,37.128265380859375,110.90625)"><use id="SvgjsUse1037" xlink:href="#a1484885767141" fill="#ffffff" stroke="#ffffff" x="0" y="-8.383146226406097"></use><use id="SvgjsUse1036" xlink:href="#t1484885767141" fill="#ffffff" x="57.761754155159" y="-11.76181024312973"></use></g></svg>